
<svg width="144" height="144" viewBox="0 0 144 144" fill="none" xmlns="http://www.w3.org/2000/svg">
<ellipse cx="75.9199" cy="117" rx="39" ry="8.5" fill="#EFF0F1"/>
<path d="M67.7812 80.7103L63.3631 76.6507L46.448 95.0593L50.8661 99.119L67.7812 80.7103Z" fill="#CFD3D6"/>
<path d="M57.7517 94.5814C59.2464 92.9547 59.1394 90.4243 57.5127 88.9296L56.04 87.5764C54.4133 86.0817 51.8829 86.1887 50.3882 87.8154L39.5625 99.5969C38.0678 101.224 38.1748 103.754 39.8015 105.249L41.2742 106.602C42.9009 108.097 45.4313 107.99 46.926 106.363L57.7517 94.5814Z" fill="#CFD3D6"/>
<path d="M71.0654 83.2287C72.2595 82.5672 72.4546 80.9302 71.4494 80.0065L63.7544 72.9358C62.7492 72.0122 61.1345 72.3448 60.5761 73.5905L59.7138 75.5142C59.3617 76.2998 59.5517 77.2225 60.1856 77.805L66.8989 83.9736C67.5328 84.556 68.4683 84.6675 69.2213 84.2503L71.0654 83.2287Z" fill="#CFD3D6"/>
<path fill-rule="evenodd" clip-rule="evenodd" d="M65.5721 78.6802C54.1852 68.2173 53.4363 50.5045 63.8992 39.1176C74.3622 27.7307 92.075 26.9818 103.462 37.4448C114.849 47.9077 115.598 65.6205 105.135 77.0074C94.6717 88.3942 76.9589 89.1432 65.5721 78.6802ZM68.9551 74.9985C59.6016 66.4039 58.9864 51.8541 67.581 42.5006C76.1756 33.1471 90.7253 32.5319 100.079 41.1265C109.432 49.7211 110.048 64.2709 101.453 73.6244C92.8584 82.9779 78.3086 83.5931 68.9551 74.9985Z" fill="#CFD3D6"/>
<path d="M69.79 44.5304C62.3165 52.6639 62.8514 65.3159 70.9849 72.7894C79.1184 80.263 91.7704 79.728 99.2439 71.5946C106.717 63.4611 106.183 50.8091 98.049 43.3355C89.9156 35.862 77.2636 36.397 69.79 44.5304Z" fill="#DEE0E3"/>
</svg>
