
<svg width="24" height="24" viewBox="0 0 24 24" fill="none" xmlns="http://www.w3.org/2000/svg">
<path d="M9.56551 2.11876C10.3771 1.91337 11.2264 1.80444 12.1 1.80444C12.9736 1.80444 13.8228 1.91336 14.6344 2.11873C15.3109 2.28992 15.6583 2.87345 15.7696 3.35491C15.8975 3.90759 16.2443 4.40532 16.773 4.71058C17.2591 4.99125 17.8087 5.05718 18.3156 4.93765C18.7964 4.82428 19.4721 4.8773 19.9252 5.40618C20.7501 6.36885 21.4008 7.48614 21.8278 8.70917C22.0882 9.45505 21.6842 10.1241 21.2622 10.4718C20.7899 10.861 20.4908 11.448 20.4908 12.1055C20.4908 12.7629 20.7899 13.3499 21.2622 13.7391C21.6842 14.0868 22.0882 14.7559 21.8278 15.5018C21.4009 16.7247 20.7503 17.8418 19.9255 18.8044C19.4723 19.3334 18.7966 19.3864 18.3157 19.273C17.8088 19.1534 17.2592 19.2193 16.773 19.5C16.2442 19.8053 15.8975 20.3031 15.7696 20.8559C15.6583 21.3374 15.3109 21.921 14.6343 22.0922C13.8228 22.2976 12.9736 22.4065 12.1 22.4065C11.2264 22.4065 10.3772 22.2976 9.56558 22.0922C8.88901 21.921 8.54168 21.3374 8.43032 20.8559C8.30247 20.3031 7.95569 19.8053 7.42692 19.5C6.94076 19.2194 6.3912 19.1534 5.88424 19.273C5.40341 19.3864 4.72768 19.3334 4.27449 18.8044C3.44973 17.8418 2.7991 16.7246 2.37219 15.5017C2.11181 14.7558 2.51577 14.0868 2.93775 13.7391C3.41006 13.3499 3.70912 12.7629 3.70912 12.1055C3.70912 11.448 3.41006 10.861 2.93775 10.4718C2.51577 10.1242 2.11182 9.45509 2.37219 8.70924C2.79916 7.48619 3.44988 6.36888 4.27477 5.40619C4.72793 4.87732 5.40358 4.82429 5.88437 4.93765C6.3913 5.05717 6.94081 4.99123 7.42693 4.71057C7.95564 4.40532 8.3024 3.90759 8.43028 3.35491C8.54168 2.87347 8.88901 2.28995 9.56551 2.11876ZM9.94794 3.56928C9.94699 3.57034 9.94589 3.57161 9.94464 3.57312C9.92878 3.59242 9.90557 3.63297 9.89167 3.69306C9.67399 4.63383 9.08048 5.48794 8.17693 6.00961C7.34693 6.48881 6.40419 6.60134 5.54015 6.39762C5.48029 6.38351 5.43377 6.38632 5.40944 6.39199C5.40744 6.39245 5.40574 6.39289 5.40432 6.39329C4.70691 7.20992 4.15668 8.15508 3.79395 9.18771C3.79451 9.18939 3.7952 9.19132 3.79605 9.19351C3.80726 9.22217 3.83732 9.26946 3.89161 9.3142C4.69491 9.97609 5.20912 10.981 5.20912 12.1055C5.20912 13.2299 4.6949 14.2348 3.89161 14.8967C3.83731 14.9415 3.80726 14.9888 3.79605 15.0174C3.79519 15.0196 3.7945 15.0215 3.79394 15.0232C4.15663 16.0557 4.70678 17.0008 5.40408 17.8174C5.4055 17.8178 5.4072 17.8182 5.40921 17.8187C5.43354 17.8243 5.48007 17.8272 5.53993 17.813C6.40403 17.6093 7.34685 17.7218 8.17692 18.201C9.08058 18.7227 9.67412 19.577 9.89174 20.5179C9.90563 20.578 9.92884 20.6185 9.94471 20.6378C9.94595 20.6394 9.94705 20.6406 9.948 20.6417C10.6359 20.8145 11.3567 20.9065 12.1 20.9065C12.8433 20.9065 13.564 20.8145 14.2519 20.6417C14.2529 20.6406 14.254 20.6394 14.2552 20.6379C14.2711 20.6186 14.2943 20.578 14.3082 20.5179C14.5258 19.577 15.1193 18.7227 16.023 18.201C16.8531 17.7217 17.796 17.6092 18.6601 17.8131C18.7199 17.8272 18.7665 17.8244 18.7908 17.8187C18.7928 17.8182 18.7945 17.8178 18.7959 17.8174C19.4932 17.0008 20.0434 16.0558 20.4061 15.0233C20.4055 15.0216 20.4048 15.0197 20.404 15.0175C20.3927 14.9888 20.3627 14.9415 20.3084 14.8968C19.5051 14.2349 18.9908 13.2299 18.9908 12.1055C18.9908 10.981 19.5051 9.97603 20.3084 9.31415C20.3627 9.26941 20.3927 9.22212 20.4039 9.19345C20.4048 9.19126 20.4055 9.18933 20.406 9.18765C20.0433 8.15503 19.4931 7.2099 18.7957 6.39328C18.7943 6.39289 18.7926 6.39245 18.7906 6.39198C18.7662 6.38631 18.7197 6.3835 18.6599 6.39761C17.7958 6.60135 16.853 6.48883 16.023 6.00962C15.1194 5.48795 14.5259 4.63382 14.3083 3.69304C14.2944 3.63295 14.2711 3.5924 14.2553 3.5731C14.254 3.57159 14.2529 3.57031 14.252 3.56925C13.5641 3.39642 12.8433 3.30444 12.1 3.30444C11.3567 3.30444 10.6359 3.39643 9.94794 3.56928ZM8.48472 12.1055C8.48472 10.1088 10.1034 8.49015 12.1 8.49015C14.0967 8.49015 15.7153 10.1088 15.7153 12.1055C15.7153 14.1021 14.0967 15.7208 12.1 15.7208C10.1034 15.7208 8.48472 14.1021 8.48472 12.1055ZM12.1 9.99015C10.9318 9.99015 9.98472 10.9372 9.98472 12.1055C9.98472 13.2737 10.9318 14.2208 12.1 14.2208C13.2683 14.2208 14.2153 13.2737 14.2153 12.1055C14.2153 10.9372 13.2683 9.99015 12.1 9.99015Z" fill="#8E959F"/>
</svg>
